<?xml version="1.0" encoding="UTF-8"?>
<svg version="1.1" xmlns="http://www.w3.org/2000/svg" width="32" height="32" viewBox="0 0 16 16">
  <path d="M0 0 C5.28 0 10.56 0 16 0 C16 5.28 16 10.56 16 16 C10.72 16 5.44 16 0 16 C0 10.72 0 5.44 0 0 Z " fill="#030302" transform="translate(0,0)"/>
  <path d="M0 0 C1.875 0.37109375 1.875 0.37109375 3.875 2.37109375 C4.205 3.03109375 4.535 3.69109375 4.875 4.37109375 C2.895 6.68109375 0.915 8.99109375 -1.125 11.37109375 C-5.51135744 9.17791503 -6.63756905 7.45758746 -9.125 3.37109375 C-6.74822724 -0.19406539 -3.96332295 -0.12385384 0 0 Z " fill="#9F9F61" transform="translate(10.125,1.62890625)"/>
  <path d="M0 0 C3.83310811 0.02060811 3.83310811 0.02060811 6.125 2.3125 C6.455 2.9725 6.785 3.6325 7.125 4.3125 C6.135 4.9725 5.145 5.6325 4.125 6.3125 C3.795 4.9925 3.465 3.6725 3.125 2.3125 C1.475 2.6425 -0.175 2.9725 -1.875 3.3125 C-1.545 4.6325 -1.215 5.9525 -0.875 7.3125 C-3.875 5.3125 -3.875 5.3125 -4.625 3.25 C-4.7075 2.610625 -4.79 1.97125 -4.875 1.3125 C-3.875 0.3125 -3.875 0.3125 0 0 Z " fill="#C7C77A" transform="translate(7.875,1.6875)"/>
  <path d="M0 0 C2.625 0.375 2.625 0.375 5 1 C5 1.99 5 2.98 5 4 C3.35 4.33 1.7 4.66 0 5 C-0.66 4.01 -1.32 3.02 -2 2 C-1.34 1.34 -0.68 0.68 0 0 Z " fill="#090906" transform="translate(7,3)"/>
</svg>
