<svg xmlns="http://www.w3.org/2000/svg" viewBox="0 0 16 16" width="32" height="32">
  <path d="M0 0 C5.28 0 10.56 0 16 0 C16 5.28 16 10.56 16 16 C10.72 16 5.44 16 0 16 C0 10.72 0 5.44 0 0 Z" fill="#030302"/>
  
  <path d="M0 0 C1.875 0.371 1.875 0.371 3.875 2.371 C4.205 3.031 4.535 3.691 4.875 4.371 C2.895 6.681 0.915 8.991 -1.125 11.371 C-5.511 9.178 -6.638 7.458 -9.125 3.371 C-6.748 -0.194 -3.963 -0.124 0 0 Z" fill="#9F9F61" transform="translate(10.125,1.629)"/>
  
  <path d="M0 0 C3.833 0.021 3.833 0.021 6.125 2.312 C6.455 2.972 6.785 3.632 7.125 4.312 C6.135 4.972 5.145 5.632 4.125 6.312 C3.795 4.992 3.465 3.672 3.125 2.312 C1.475 2.642 -0.175 2.972 -1.875 3.312 C-1.545 4.632 -1.215 5.952 -0.875 7.312 C-3.875 5.312 -3.875 5.312 -4.625 3.25 C-4.707 2.611 -4.79 1.971 -4.875 1.312 C-3.875 0.312 -3.875 0.312 0 0 Z" fill="#C7C77A" transform="translate(7.875,1.687)"/>
  
  <path d="M0 0 C2.625 0.375 2.625 0.375 5 1 C5 1.99 5 2.98 5 4 C3.35 4.33 1.7 4.66 0 5 C-0.66 4.01 -1.32 3.02 -2 2 C-1.34 1.34 -0.68 0.68 0 0 Z" fill="#090906" transform="translate(7,3)"/>
</svg>
